<mxfile host="app.diagrams.net" modified="2024-02-09T16:21:32.882Z" agent="Mozilla/5.0 (X11; Linux x86_64) AppleWebKit/537.36 (KHTML, like Gecko) Chrome/120.0.0.0 Safari/537.36" etag="AWSMMQc5Eb8nL38oXb1F" version="23.1.2" type="device">
  <diagram name="Page-1" id="ojhCxAKLi-XKlng4tKIU">
    <mxGraphModel dx="1399" dy="814" grid="1" gridSize="10" guides="1" tooltips="1" connect="1" arrows="1" fold="1" page="1" pageScale="1" pageWidth="500" pageHeight="1100" math="0" shadow="0">
      <root>
        <mxCell id="0" />
        <mxCell id="1" parent="0" />
        <mxCell id="pyt1ZrnFjjMrIwSftZ4o-1" value="Customer" style="shape=umlActor;verticalLabelPosition=bottom;verticalAlign=top;html=1;outlineConnect=0;" parent="1" vertex="1">
          <mxGeometry x="35" y="280" width="30" height="60" as="geometry" />
        </mxCell>
        <mxCell id="pyt1ZrnFjjMrIwSftZ4o-2" value="Employee" style="shape=umlActor;verticalLabelPosition=bottom;verticalAlign=top;html=1;outlineConnect=0;" parent="1" vertex="1">
          <mxGeometry x="35" y="600" width="30" height="60" as="geometry" />
        </mxCell>
        <mxCell id="pyt1ZrnFjjMrIwSftZ4o-4" value="User" style="shape=umlActor;verticalLabelPosition=bottom;verticalAlign=top;html=1;outlineConnect=0;" parent="1" vertex="1">
          <mxGeometry x="35" y="40" width="30" height="60" as="geometry" />
        </mxCell>
        <mxCell id="pyt1ZrnFjjMrIwSftZ4o-5" value="Show books and magazines" style="ellipse;whiteSpace=wrap;html=1;" parent="1" vertex="1">
          <mxGeometry x="245" y="40" width="220" height="60" as="geometry" />
        </mxCell>
        <mxCell id="pyt1ZrnFjjMrIwSftZ4o-6" value="Show detail of book/magazine" style="ellipse;whiteSpace=wrap;html=1;" parent="1" vertex="1">
          <mxGeometry x="245" y="120" width="220" height="60" as="geometry" />
        </mxCell>
        <mxCell id="pyt1ZrnFjjMrIwSftZ4o-8" value="Manage books/magazines&lt;br&gt;(add, edit, remove)" style="ellipse;whiteSpace=wrap;html=1;" parent="1" vertex="1">
          <mxGeometry x="245" y="760" width="220" height="60" as="geometry" />
        </mxCell>
        <mxCell id="pyt1ZrnFjjMrIwSftZ4o-9" value="Borrow book/magazine to&lt;br&gt;a customer" style="ellipse;whiteSpace=wrap;html=1;" parent="1" vertex="1">
          <mxGeometry x="245" y="600" width="220" height="60" as="geometry" />
        </mxCell>
        <mxCell id="pyt1ZrnFjjMrIwSftZ4o-10" value="Return book/magazine&lt;br&gt;from a customer" style="ellipse;whiteSpace=wrap;html=1;" parent="1" vertex="1">
          <mxGeometry x="245" y="680" width="220" height="60" as="geometry" />
        </mxCell>
        <mxCell id="pyt1ZrnFjjMrIwSftZ4o-11" value="Show receipts" style="ellipse;whiteSpace=wrap;html=1;" parent="1" vertex="1">
          <mxGeometry x="245" y="280" width="220" height="60" as="geometry" />
        </mxCell>
        <mxCell id="pyt1ZrnFjjMrIwSftZ4o-12" value="Register" style="ellipse;whiteSpace=wrap;html=1;" parent="1" vertex="1">
          <mxGeometry x="245" y="200" width="220" height="60" as="geometry" />
        </mxCell>
        <mxCell id="pyt1ZrnFjjMrIwSftZ4o-13" value="Pay receipt" style="ellipse;whiteSpace=wrap;html=1;" parent="1" vertex="1">
          <mxGeometry x="245" y="360" width="220" height="60" as="geometry" />
        </mxCell>
        <mxCell id="pyt1ZrnFjjMrIwSftZ4o-14" value="Issue a receipt" style="ellipse;whiteSpace=wrap;html=1;" parent="1" vertex="1">
          <mxGeometry x="245" y="840" width="220" height="60" as="geometry" />
        </mxCell>
        <mxCell id="pyt1ZrnFjjMrIwSftZ4o-15" value="" style="triangle;whiteSpace=wrap;html=1;rotation=-90;" parent="1" vertex="1">
          <mxGeometry x="37.5" y="120" width="25" height="30" as="geometry" />
        </mxCell>
        <mxCell id="pyt1ZrnFjjMrIwSftZ4o-17" value="" style="triangle;whiteSpace=wrap;html=1;rotation=-90;" parent="1" vertex="1">
          <mxGeometry x="37.5" y="360" width="25" height="30" as="geometry" />
        </mxCell>
        <mxCell id="pyt1ZrnFjjMrIwSftZ4o-18" value="" style="endArrow=none;html=1;rounded=0;exitX=0;exitY=0.5;exitDx=0;exitDy=0;" parent="1" source="pyt1ZrnFjjMrIwSftZ4o-15" target="pyt1ZrnFjjMrIwSftZ4o-1" edge="1">
          <mxGeometry width="50" height="50" relative="1" as="geometry">
            <mxPoint x="195" y="310" as="sourcePoint" />
            <mxPoint x="245" y="260" as="targetPoint" />
          </mxGeometry>
        </mxCell>
        <mxCell id="pyt1ZrnFjjMrIwSftZ4o-20" value="" style="endArrow=none;html=1;rounded=0;exitX=0.5;exitY=0;exitDx=0;exitDy=0;exitPerimeter=0;entryX=0;entryY=0.5;entryDx=0;entryDy=0;" parent="1" source="pyt1ZrnFjjMrIwSftZ4o-2" target="pyt1ZrnFjjMrIwSftZ4o-17" edge="1">
          <mxGeometry width="50" height="50" relative="1" as="geometry">
            <mxPoint x="195" y="520" as="sourcePoint" />
            <mxPoint x="245" y="470" as="targetPoint" />
          </mxGeometry>
        </mxCell>
        <mxCell id="pyt1ZrnFjjMrIwSftZ4o-21" value="" style="endArrow=open;endFill=1;endSize=12;html=1;rounded=0;" parent="1" source="pyt1ZrnFjjMrIwSftZ4o-4" target="pyt1ZrnFjjMrIwSftZ4o-5" edge="1">
          <mxGeometry width="160" relative="1" as="geometry">
            <mxPoint x="135" y="200" as="sourcePoint" />
            <mxPoint x="295" y="200" as="targetPoint" />
          </mxGeometry>
        </mxCell>
        <mxCell id="pyt1ZrnFjjMrIwSftZ4o-22" value="" style="endArrow=open;endFill=1;endSize=12;html=1;rounded=0;entryX=0;entryY=0.5;entryDx=0;entryDy=0;" parent="1" source="pyt1ZrnFjjMrIwSftZ4o-4" target="pyt1ZrnFjjMrIwSftZ4o-6" edge="1">
          <mxGeometry width="160" relative="1" as="geometry">
            <mxPoint x="75" y="80" as="sourcePoint" />
            <mxPoint x="255" y="80" as="targetPoint" />
          </mxGeometry>
        </mxCell>
        <mxCell id="pyt1ZrnFjjMrIwSftZ4o-24" value="" style="endArrow=open;endFill=1;endSize=12;html=1;rounded=0;entryX=0;entryY=0.5;entryDx=0;entryDy=0;" parent="1" source="pyt1ZrnFjjMrIwSftZ4o-2" target="pyt1ZrnFjjMrIwSftZ4o-9" edge="1">
          <mxGeometry width="160" relative="1" as="geometry">
            <mxPoint x="75" y="92" as="sourcePoint" />
            <mxPoint x="255" y="240" as="targetPoint" />
          </mxGeometry>
        </mxCell>
        <mxCell id="pyt1ZrnFjjMrIwSftZ4o-25" value="" style="endArrow=open;endFill=1;endSize=12;html=1;rounded=0;entryX=0;entryY=0.5;entryDx=0;entryDy=0;" parent="1" source="pyt1ZrnFjjMrIwSftZ4o-2" target="pyt1ZrnFjjMrIwSftZ4o-10" edge="1">
          <mxGeometry width="160" relative="1" as="geometry">
            <mxPoint x="75" y="320" as="sourcePoint" />
            <mxPoint x="255" y="320" as="targetPoint" />
          </mxGeometry>
        </mxCell>
        <mxCell id="pyt1ZrnFjjMrIwSftZ4o-26" value="" style="endArrow=open;endFill=1;endSize=12;html=1;rounded=0;entryX=0;entryY=0.5;entryDx=0;entryDy=0;" parent="1" source="pyt1ZrnFjjMrIwSftZ4o-1" target="pyt1ZrnFjjMrIwSftZ4o-11" edge="1">
          <mxGeometry width="160" relative="1" as="geometry">
            <mxPoint x="75" y="326" as="sourcePoint" />
            <mxPoint x="255" y="400" as="targetPoint" />
          </mxGeometry>
        </mxCell>
        <mxCell id="pyt1ZrnFjjMrIwSftZ4o-27" value="" style="endArrow=open;endFill=1;endSize=12;html=1;rounded=0;entryX=0;entryY=0.5;entryDx=0;entryDy=0;" parent="1" source="pyt1ZrnFjjMrIwSftZ4o-1" target="pyt1ZrnFjjMrIwSftZ4o-13" edge="1">
          <mxGeometry width="160" relative="1" as="geometry">
            <mxPoint x="75" y="332" as="sourcePoint" />
            <mxPoint x="255" y="480" as="targetPoint" />
          </mxGeometry>
        </mxCell>
        <mxCell id="pyt1ZrnFjjMrIwSftZ4o-28" value="" style="endArrow=open;endFill=1;endSize=12;html=1;rounded=0;entryX=0;entryY=0.5;entryDx=0;entryDy=0;" parent="1" source="pyt1ZrnFjjMrIwSftZ4o-2" target="pyt1ZrnFjjMrIwSftZ4o-8" edge="1">
          <mxGeometry width="160" relative="1" as="geometry">
            <mxPoint x="75" y="498" as="sourcePoint" />
            <mxPoint x="255" y="720" as="targetPoint" />
          </mxGeometry>
        </mxCell>
        <mxCell id="pyt1ZrnFjjMrIwSftZ4o-30" value="" style="endArrow=open;endFill=1;endSize=12;html=1;rounded=0;entryX=0;entryY=0.5;entryDx=0;entryDy=0;" parent="1" source="pyt1ZrnFjjMrIwSftZ4o-2" target="pyt1ZrnFjjMrIwSftZ4o-14" edge="1">
          <mxGeometry width="160" relative="1" as="geometry">
            <mxPoint x="75" y="806" as="sourcePoint" />
            <mxPoint x="255" y="880" as="targetPoint" />
          </mxGeometry>
        </mxCell>
        <mxCell id="pyt1ZrnFjjMrIwSftZ4o-31" value="Manage reservations&lt;br&gt;(create, remove)" style="ellipse;whiteSpace=wrap;html=1;" parent="1" vertex="1">
          <mxGeometry x="245" y="440" width="220" height="60" as="geometry" />
        </mxCell>
        <mxCell id="pyt1ZrnFjjMrIwSftZ4o-32" value="Extend borrow duration" style="ellipse;whiteSpace=wrap;html=1;" parent="1" vertex="1">
          <mxGeometry x="245" y="520" width="220" height="60" as="geometry" />
        </mxCell>
        <mxCell id="pyt1ZrnFjjMrIwSftZ4o-33" value="" style="endArrow=open;endFill=1;endSize=12;html=1;rounded=0;entryX=0;entryY=0.5;entryDx=0;entryDy=0;" parent="1" source="pyt1ZrnFjjMrIwSftZ4o-1" target="pyt1ZrnFjjMrIwSftZ4o-31" edge="1">
          <mxGeometry width="160" relative="1" as="geometry">
            <mxPoint x="75" y="338" as="sourcePoint" />
            <mxPoint x="255" y="560" as="targetPoint" />
          </mxGeometry>
        </mxCell>
        <mxCell id="pyt1ZrnFjjMrIwSftZ4o-34" value="" style="endArrow=open;endFill=1;endSize=12;html=1;rounded=0;entryX=0;entryY=0.5;entryDx=0;entryDy=0;" parent="1" source="pyt1ZrnFjjMrIwSftZ4o-1" target="pyt1ZrnFjjMrIwSftZ4o-32" edge="1">
          <mxGeometry width="160" relative="1" as="geometry">
            <mxPoint x="75" y="345" as="sourcePoint" />
            <mxPoint x="255" y="640" as="targetPoint" />
          </mxGeometry>
        </mxCell>
        <mxCell id="pyt1ZrnFjjMrIwSftZ4o-35" value="" style="endArrow=open;endFill=1;endSize=12;html=1;rounded=0;entryX=0;entryY=0.5;entryDx=0;entryDy=0;" parent="1" source="pyt1ZrnFjjMrIwSftZ4o-4" target="pyt1ZrnFjjMrIwSftZ4o-12" edge="1">
          <mxGeometry width="160" relative="1" as="geometry">
            <mxPoint x="75" y="86" as="sourcePoint" />
            <mxPoint x="255" y="160" as="targetPoint" />
          </mxGeometry>
        </mxCell>
        <mxCell id="pyt1ZrnFjjMrIwSftZ4o-36" value="Admin" style="shape=umlActor;verticalLabelPosition=bottom;verticalAlign=top;html=1;outlineConnect=0;" parent="1" vertex="1">
          <mxGeometry x="35" y="1000" width="30" height="60" as="geometry" />
        </mxCell>
        <mxCell id="pyt1ZrnFjjMrIwSftZ4o-37" value="Manage employees&lt;br&gt;(add, edit, remove)" style="ellipse;whiteSpace=wrap;html=1;" parent="1" vertex="1">
          <mxGeometry x="245" y="1000" width="220" height="60" as="geometry" />
        </mxCell>
        <mxCell id="pyt1ZrnFjjMrIwSftZ4o-38" value="" style="triangle;whiteSpace=wrap;html=1;rotation=-90;" parent="1" vertex="1">
          <mxGeometry x="37.5" y="680" width="25" height="30" as="geometry" />
        </mxCell>
        <mxCell id="pyt1ZrnFjjMrIwSftZ4o-39" value="" style="endArrow=none;html=1;rounded=0;entryX=0;entryY=0.5;entryDx=0;entryDy=0;" parent="1" source="pyt1ZrnFjjMrIwSftZ4o-36" target="pyt1ZrnFjjMrIwSftZ4o-38" edge="1">
          <mxGeometry width="50" height="50" relative="1" as="geometry">
            <mxPoint x="60" y="770" as="sourcePoint" />
            <mxPoint x="60" y="397" as="targetPoint" />
          </mxGeometry>
        </mxCell>
        <mxCell id="pyt1ZrnFjjMrIwSftZ4o-40" value="" style="endArrow=open;endFill=1;endSize=12;html=1;rounded=0;entryX=0;entryY=0.5;entryDx=0;entryDy=0;" parent="1" source="pyt1ZrnFjjMrIwSftZ4o-36" target="pyt1ZrnFjjMrIwSftZ4o-37" edge="1">
          <mxGeometry width="160" relative="1" as="geometry">
            <mxPoint x="75" y="886" as="sourcePoint" />
            <mxPoint x="255" y="960" as="targetPoint" />
          </mxGeometry>
        </mxCell>
        <mxCell id="pyt1ZrnFjjMrIwSftZ4o-41" value="Remove customers&lt;br&gt;reservation" style="ellipse;whiteSpace=wrap;html=1;" parent="1" vertex="1">
          <mxGeometry x="245" y="920" width="220" height="60" as="geometry" />
        </mxCell>
        <mxCell id="pyt1ZrnFjjMrIwSftZ4o-42" value="" style="endArrow=open;endFill=1;endSize=12;html=1;rounded=0;entryX=0;entryY=0.5;entryDx=0;entryDy=0;" parent="1" source="pyt1ZrnFjjMrIwSftZ4o-2" target="pyt1ZrnFjjMrIwSftZ4o-41" edge="1">
          <mxGeometry width="160" relative="1" as="geometry">
            <mxPoint x="75" y="658" as="sourcePoint" />
            <mxPoint x="255" y="880" as="targetPoint" />
          </mxGeometry>
        </mxCell>
      </root>
    </mxGraphModel>
  </diagram>
</mxfile>
